PathFileType	4	(X/Y/Z)	Patient4_TMGait_0pt3_01_left_16.trc.trc
DataRate	CameraRate	NumFrames	NumMarkers	Units	OrigDataRate	OrigDataStartFrame	OrigNumFrames
50.909090909091	50.909090909091	4	33	mm	50.909090909091	1	       141
Frame#	Time	Sacral			L.Shoulder			Chest			R.Shoulder			Neck			R.ASIS			L.ASIS			R.Thigh.Superior			R.Thigh.Lateral			R.Thigh.Inferior			R.Patella			L.Thigh.Superior			L.Thigh.Lateral			L.Thigh.Inferior			L.Patella			L.Shank.Superior			L.Shank.Lateral			L.Shank.Inferior			R.Shank.Superior			R.Shank.Lateral			R.Shank.Inferior			R.Heel			R.Midfoot.Superior			R.Midfoot.Lateral			R.Toe			L.Heel			L.Midfoot.Lateral			L.Midfoot.Superior			L.Toe			L.Elbow			L.Wrist			R.Elbow			R.Wrist			
		X1	Y1	Z1	X2	Y2	Z2	X3	Y3	Z3	X4	Y4	Z4	X5	Y5	Z5	X6	Y6	Z6	X7	Y7	Z7	X8	Y8	Z8	X9	Y9	Z9	X10	Y10	Z10	X11	Y11	Z11	X12	Y12	Z12	X13	Y13	Z13	X14	Y14	Z14	X15	Y15	Z15	X16	Y16	Z16	X17	Y17	Z17	X18	Y18	Z18	X19	Y19	Z19	X20	Y20	Z20	X21	Y21	Z21	X22	Y22	Z22	X23	Y23	Z23	X24	Y24	Z24	X25	Y25	Z25	X26	Y26	Z26	X27	Y27	Z27	X28	Y28	Z28	X29	Y29	Z29	X30	Y30	Z30	X31	Y31	Z31	X32	Y32	Z32	X33	Y33	Z33	

1	29.620000000000	804.786486530863	998.508585392854	559.008087594496	995.236327995395	1432.754622296284	398.601324832726	1073.682577654820	1366.372571294128	573.055723231158	963.315265221851	1435.952209359843	732.993691086952	956.583125979429	1494.656447476178	554.449337555383	1026.156189177765	943.234620695046	698.463736724181	1035.229316187790	959.744499798206	424.184790788860	1078.181090338370	744.834144899792	665.264171858389	995.049268616126	629.114468922650	711.572912828654	1080.160342422453	583.178465708593	636.152543222058	1081.575972315430	494.133772627589	638.145277045493	1093.088325641917	748.840020724884	450.637706624897	1025.326074416534	628.668686655189	374.337451566917	1111.860287326486	549.875479278384	442.013202725630	1106.331681104578	461.170455036389	434.221331261416	1031.718422449769	406.279327633677	420.748794465038	889.505184595692	382.427180311684	362.706612330958	857.357786048413	254.186886748185	412.217572957075	1053.304265187780	404.742927058654	637.990855990708	977.735851879871	299.097649485787	689.934305601809	1022.390011239332	206.654507077985	625.259177549021	887.106641365637	44.442964440979	581.363469480728	1056.802305635636	97.629590941492	629.150699771749	965.549334425718	37.299675822291	660.284266747086	1174.184838518772	42.625246213238	664.672404178763	660.457625825522	223.792129618956	439.846516714917	710.430838522735	166.455321272451	361.809322146260	814.385618053588	151.196184953784	386.751689342765	867.225749508564	25.827112207988	360.955903065006	1043.738123759376	1081.727065259792	281.682022567328	1222.603830516795	888.920437961945	291.382257458926	910.141275304744	1094.819264985601	863.649986715135	1048.354045956555	877.529878831820	913.904880250784	
2	29.639642857143	804.107693384593	997.450576772774	563.919808490888	991.182957215276	1431.530077247194	399.748233571293	1072.663256300543	1365.983814093605	573.072962077603	964.835506936394	1435.848786758558	734.599422385091	955.266345421146	1494.032695437636	555.855252655721	1027.077842893114	942.709946947217	700.604694106056	1033.055661455242	959.671055261891	426.192347372025	1078.616583716145	743.879083553691	666.821071223102	995.858400273768	628.088405921749	713.079611400369	1080.419845935374	582.262316752305	637.072175947252	1081.733162960861	492.671587478420	638.624128366089	1096.100360479579	752.953394346942	454.808613173175	1033.251636770107	631.282016861172	377.980257030709	1121.839003734832	555.244800442251	446.365732660032	1118.987488757342	465.919953838766	438.261935923560	1044.827165303627	409.842427388196	423.956599519699	902.151029468196	385.632930570075	366.560532034057	871.658908349769	256.330338563334	414.448981489790	1051.957780762668	403.408686377431	638.359398017747	975.369443021433	298.576842989563	690.415150128938	1018.310302069133	205.871063235661	625.205550890755	881.043101150438	44.472306420823	581.452276896705	1050.920264148686	97.736949022803	629.294486765453	959.517865960020	37.289465883625	660.331641167702	1168.172885026703	42.499918806188	664.695495421487	674.751536666460	221.585720463318	442.792831331243	725.621162589678	167.608016184658	363.219589023019	829.992556432952	154.362827639708	387.546287296239	885.727134270300	30.968207499826	358.250134046502	1030.512983404840	1078.829879475263	284.813879530215	1190.369782825391	874.043395717414	293.295005667786	923.352412807200	1094.469861443801	868.039048651835	1072.584016568037	885.773743007275	917.495448524714	
3	29.659285714286	803.386063506387	996.469719952699	568.839316649639	986.989388680304	1430.321749054778	400.904950737952	1071.589235726490	1365.636416622279	573.052564212441	966.380353465577	1435.795693639293	736.194514631387	953.870812256383	1493.440274009435	557.258112638214	1027.984304804168	942.183742098036	702.706542713536	1030.783130587584	959.649326067949	428.188959896545	1078.946065255735	742.911782668947	668.294270178029	996.521081147413	627.074073239332	714.571479914583	1080.480837979247	581.324434891156	637.946810864899	1081.651800669468	491.204685932313	639.075277426140	1098.942310143998	757.119163098371	458.906795169749	1040.990262663546	634.002092818698	381.568893903971	1131.554832339041	560.715777769753	450.677020985601	1131.454620504802	470.873768138418	442.232231648026	1058.022045816896	413.477017539320	427.073592805736	915.040436747071	388.177124824573	370.354834347264	886.907817320907	257.734143017423	416.623536775352	1050.388605234204	402.078889720065	638.720271999083	972.803719420271	298.052238152439	690.890384968119	1014.050458320894	205.086536391204	625.147913056066	874.814723267474	44.500028087639	581.536819032235	1044.867384303895	97.834187239370	629.431859744735	953.324512433676	37.278347527484	660.381151382627	1161.997424275354	42.372896009656	664.718369618060	690.376501567486	217.659181214701	445.750344948893	742.246480119284	167.330137397140	364.626979326049	847.020185831632	156.651500696060	388.305666097726	906.172958500578	35.664152034246	355.489818950930	1016.621514805510	1076.027097679956	287.985526115475	1157.126783501774	859.631191974132	295.320697365901	936.977293570840	1094.279449156960	872.355679628210	1097.614058114691	894.827771745012	920.795875896043	
4	29.678928571429	802.629638605385	995.641470167962	573.616225527909	982.719798386966	1429.193564540479	402.039947095275	1070.467355691627	1365.370145159698	572.970081953868	967.918575451480	1435.829050509475	737.717960315832	952.403155913815	1492.924162532656	558.612405436207	1028.832165593816	941.678815029731	704.675861638584	1028.426890665221	959.715236962115	430.099495927015	1079.084217032998	741.960115647012	669.595165901274	996.913300486733	626.118115679408	715.993051432582	1080.208210007315	580.388380101263	638.727587693632	1081.170620911147	489.787896735320	639.471688115766	1101.415385736704	761.219122398658	462.752524763194	1048.161289508332	636.787194911452	384.934078355629	1140.523205321592	566.145585609741	454.757946902314	1143.197412152508	475.971013992767	445.946544498442	1070.886755502582	417.115138043111	429.945410468876	927.914167617021	389.678657065001	373.898161069702	903.095556610294	258.070756321695	418.639645286968	1048.506625161956	400.807614552801	639.060961332905	969.995319865444	297.542281080386	691.345502688371	1009.637596401519	204.331494865364	625.090663149629	868.533803587562	44.522938325764	581.616316053460	1038.745930237645	97.913833093375	629.556084863072	947.080519815613	37.266018712540	660.432960314726	1155.768554549965	42.249625847153	664.742975164090	707.549610902240	211.433628348386	448.591945825511	760.554270062954	165.042193122889	365.977343389924	865.653187926987	157.652520711329	389.002043729583	928.862647120045	39.644786374190	352.815661843439	1002.175609394163	1073.502984539301	291.113932005359	1123.495833939365	846.420921845598	297.455667813523	950.803876739657	1094.365270401020	876.416095228119	1123.005308269133	904.878251260730	923.511364468645	
